<?xml version="1.0" encoding="UTF-8" standalone="no"?>
<svg
   xmlns:dc="http://purl.org/dc/elements/1.1/"
   xmlns:cc="http://creativecommons.org/ns#"
   xmlns:rdf="http://www.w3.org/1999/02/22-rdf-syntax-ns#"
   xmlns:svg="http://www.w3.org/2000/svg"
   xmlns="http://www.w3.org/2000/svg"
   xmlns:xlink="http://www.w3.org/1999/xlink"
   xmlns:sodipodi="http://sodipodi.sourceforge.net/DTD/sodipodi-0.dtd"
   xmlns:inkscape="http://www.inkscape.org/namespaces/inkscape"
   width="210mm"
   height="297mm"
   viewBox="0 0 210 297"
   version="1.1"
   id="svg527"
   inkscape:version="1.0.1 (3bc2e813f5, 2020-09-07)"
   sodipodi:docname="documeant-logos_other.svg">
  <defs
     id="defs521">
    <linearGradient
       inkscape:collect="always"
       xlink:href="#linearGradient2774"
       id="linearGradient2776"
       x1="2136.5369"
       y1="1215.0491"
       x2="2220.373"
       y2="1103.4668"
       gradientUnits="userSpaceOnUse"
       gradientTransform="matrix(0.26458333,0,0,0.26458333,2.5935221e-6,8.7542866e-6)" />
    <linearGradient
       inkscape:collect="always"
       id="linearGradient2774">
      <stop
         style="stop-color:#000000;stop-opacity:0.48896739"
         offset="0"
         id="stop2770" />
      <stop
         style="stop-color:#000600;stop-opacity:0"
         offset="1"
         id="stop2772" />
    </linearGradient>
    <linearGradient
       inkscape:collect="always"
       xlink:href="#linearGradient2774"
       id="linearGradient2856"
       gradientUnits="userSpaceOnUse"
       x1="2136.5369"
       y1="1215.0491"
       x2="2220.373"
       y2="1103.4668" />
    <linearGradient
       inkscape:collect="always"
       xlink:href="#linearGradient3255"
       id="linearGradient3249"
       gradientUnits="userSpaceOnUse"
       x1="2136.5369"
       y1="1215.0491"
       x2="2220.373"
       y2="1103.4668" />
    <linearGradient
       inkscape:collect="always"
       id="linearGradient3255">
      <stop
         style="stop-color:#000000;stop-opacity:0.33801368"
         offset="0"
         id="stop3251" />
      <stop
         style="stop-color:#000600;stop-opacity:0"
         offset="1"
         id="stop3253" />
    </linearGradient>
    <linearGradient
       inkscape:collect="always"
       xlink:href="#linearGradient2774"
       id="linearGradient794"
       gradientUnits="userSpaceOnUse"
       x1="2136.5369"
       y1="1215.0491"
       x2="2220.373"
       y2="1103.4668" />
    <linearGradient
       inkscape:collect="always"
       xlink:href="#linearGradient2774"
       id="linearGradient796"
       gradientUnits="userSpaceOnUse"
       x1="2136.5369"
       y1="1215.0491"
       x2="2220.373"
       y2="1103.4668" />
    <linearGradient
       inkscape:collect="always"
       xlink:href="#linearGradient2774"
       id="linearGradient798"
       gradientUnits="userSpaceOnUse"
       x1="2136.5369"
       y1="1215.0491"
       x2="2220.373"
       y2="1103.4668" />
    <linearGradient
       inkscape:collect="always"
       xlink:href="#linearGradient2774"
       id="linearGradient800"
       gradientUnits="userSpaceOnUse"
       x1="2136.5369"
       y1="1215.0491"
       x2="2220.373"
       y2="1103.4668" />
    <linearGradient
       inkscape:collect="always"
       xlink:href="#linearGradient2774"
       id="linearGradient802"
       gradientUnits="userSpaceOnUse"
       x1="2136.5369"
       y1="1215.0491"
       x2="2220.373"
       y2="1103.4668" />
  </defs>
  <sodipodi:namedview
     id="base"
     pagecolor="#ffffff"
     bordercolor="#666666"
     borderopacity="1.0"
     inkscape:pageopacity="0.0"
     inkscape:pageshadow="2"
     inkscape:zoom="0.35"
     inkscape:cx="400"
     inkscape:cy="560"
     inkscape:document-units="mm"
     inkscape:current-layer="layer1"
     inkscape:document-rotation="0"
     showgrid="false" />
  <metadata
     id="metadata524">
    <rdf:RDF>
      <cc:Work
         rdf:about="">
        <dc:format>image/svg+xml</dc:format>
        <dc:type
           rdf:resource="http://purl.org/dc/dcmitype/StillImage" />
        <dc:title></dc:title>
      </cc:Work>
    </rdf:RDF>
  </metadata>
  <g
     inkscape:label="Layer 1"
     inkscape:groupmode="layer"
     id="layer1">
    <g
       id="g5698"
       transform="translate(-548.87179,-266.0559)">
      <text
         xml:space="preserve"
         style="font-style:normal;font-variant:normal;font-weight:normal;font-stretch:normal;font-size:24.9163px;line-height:0;font-family:Gidolinya;-inkscape-font-specification:Gidolinya;text-align:start;letter-spacing:0px;word-spacing:0px;text-anchor:start;fill:#2c2c2c;fill-opacity:1;stroke:none;stroke-width:1.00898;stroke-miterlimit:4;stroke-dasharray:none"
         x="594.68701"
         y="312.92273"
         id="text2011"><tspan
           sodipodi:role="line"
           x="594.68701"
           y="312.92273"
           style="font-style:normal;font-variant:normal;font-weight:normal;font-stretch:normal;font-size:24.9163px;line-height:1.25;font-family:Gidolinya;-inkscape-font-specification:Gidolinya;fill:#2c2c2c;fill-opacity:1;stroke-width:1.00898;stroke-miterlimit:4;stroke-dasharray:none"
           id="tspan2009">Calc</tspan></text>
      <g
         id="g2936"
         transform="translate(0,0.78843665)">
        <path
           id="path2767"
           style="fill:#6af76d;fill-opacity:1;stroke:none;stroke-width:0.409837;stroke-linecap:round;stroke-linejoin:round;stroke-opacity:0;paint-order:stroke fill markers"
           d="m 575.63101,291.95892 -0.0155,0.002 c -3.05554,1e-4 -5.91606,1.81491 -7.21612,4.58007 -2.83524,1.26661 -4.7136,4.15721 -4.71958,7.2626 v 0.015 c 3e-5,3.09809 1.86364,5.98789 4.68651,7.26414 1.28598,2.78921 4.15356,4.62626 7.2249,4.63229 h 0.015 c 3.05062,3e-5 5.90757,-1.80927 7.21043,-4.56768 0.008,-0.018 0.0153,-0.0363 0.0233,-0.0543 -0.008,0.0177 -0.0143,0.0361 -0.0222,0.0537 2.80096,-1.28119 4.65008,-4.15565 4.65603,-7.23572 v -0.015 c -0.56293,-3.25007 -2.1935,-6.02996 -4.57904,-7.21559 -1.26619,-2.83636 -4.15747,-4.71516 -7.26363,-4.72114 z" />
        <path
           id="path2051"
           style="fill:url(#linearGradient2776);fill-opacity:1;stroke:none;stroke-width:0.409837;stroke-linecap:round;stroke-linejoin:round;stroke-opacity:0;paint-order:stroke fill markers"
           d="m 575.61551,291.96049 c -3.05554,1.3e-4 -5.91606,1.81491 -7.21611,4.58007 0.96832,-0.4041 2.08634,-0.66387 3.13626,-0.66405 v 0 c 1.31765,2.1e-4 2.61247,0.3823 3.77082,1.01182 0.0924,-0.009 0.18592,-0.0148 0.28061,-0.0151 h 0.003 0.006 c 0.0878,0 0.17457,0.006 0.26043,0.0135 1.34623,-0.65558 2.36402,-0.894 3.75274,-0.90794 1.18026,-0.0119 2.33992,0.29662 3.2851,0.70278 -1.26619,-2.83636 -4.15751,-4.71514 -7.26366,-4.72114 z m 7.27863,4.72115 c 0.40429,0.96869 0.60352,2.08645 0.60357,3.13676 -2.1e-4,1.31273 -0.32345,2.55535 -0.94877,3.71036 0.008,0.0889 0.0103,0.2258 0.0103,0.31679 0,0.0891 -0.003,0.22251 -0.0114,0.30953 0.6214,1.15282 0.97253,2.39406 0.97253,3.70314 3e-5,1.10619 -0.25638,2.27862 -0.70331,3.28972 2.80096,-1.28119 4.6501,-4.15568 4.65606,-7.23574 v -0.0151 c -0.56293,-3.25006 -2.19348,-6.02996 -4.57904,-7.21558 z m -0.077,14.4663 c -0.98671,0.42193 -2.12801,0.69099 -3.20185,0.69091 -1.31075,-2.1e-4 -2.55204,-0.41389 -3.70573,-1.03974 -0.22847,1.1e-4 -0.46159,0 -0.68212,-0.009 -0.003,-0.0201 -2.38805,0.96946 -3.69176,0.96946 -1.06217,0 -2.19104,-0.26326 -3.16881,-0.67646 1.28598,2.78919 4.15351,4.62627 7.22487,4.6323 h 0.0151 c 3.05062,3e-5 5.90754,-1.80927 7.2104,-4.56769 z m -14.45027,-0.0646 c -0.42891,-0.99348 -0.64693,-2.1423 -0.64698,-3.22511 2.1e-4,-1.33324 0.28334,-2.64345 0.92345,-3.81217 -0.003,-0.019 -0.003,-0.0379 -0.004,-0.0569 v 0 c -0.003,-0.0564 -0.005,-0.11248 -0.005,-0.16899 -2e-5,-0.004 -2e-5,-0.009 0,-0.013 2.2e-4,-0.0446 0,-0.0893 0.004,-0.13386 0.003,-0.0198 0.003,-0.0397 0.005,-0.0594 -0.63421,-1.16486 -0.95237,-2.68515 -0.95239,-4.01214 0.0766,-1.1484 0.32334,-2.16599 0.7095,-3.06184 -2.83588,1.26637 -4.71461,4.15734 -4.72061,7.26313 v 0.0151 c 5e-5,3.09864 1.86433,5.98874 4.68807,7.26466 z" />
        <path
           id="rect2019"
           style="fill:#000000;fill-opacity:0.513347;stroke:none;stroke-width:0.610802;stroke-linecap:round;stroke-linejoin:round;stroke-miterlimit:4;stroke-dasharray:none;stroke-opacity:1;paint-order:stroke markers fill"
           d="m 2155.1055,1132.5996 v 37.0801 h 0.7715 v -7.4492 0 0.6367 7.4473 h 0.7714 v -7.4473 h 9.9981 v 6.8125 h 0.7715 v -6.8125 0 7.4473 h 0.7715 v -7.4473 h 9.9981 v 6.8125 h 0.7714 v -6.8125 0 7.4473 h 0.7714 v -7.4473 h 16.4883 v -0.7715 h -0.7734 v -0.6367 h -15.7149 v -4.3652 h 16.4883 v -0.7715 h -0.7734 v -0.6348 h -15.7149 v -4.3652 h 16.4883 v -0.7715 h -0.7734 v -0.6348 h -15.7149 v -4.3652 h 16.4883 v -0.7715 h -0.7734 v -0.6348 h -15.7149 v -4.3652 h 16.4883 v -0.7715 h -0.7734 v -0.6367 h -15.7149 v -4.3652 h 16.4883 v -0.7715 h -0.7734 v -0.6348 h -39.5781 -0.7696 z m 0.7715,0.7715 v 0 0.6348 4.3652 0 z m 0.7753,0.6348 h 9.9981 v 4.3652 h -9.9981 z m 10.7696,0 v 0 4.3652 0 z m 0.7734,0 h 9.9981 v 4.3652 h -9.9981 z m 10.7695,0 v 0 4.3652 0 z m -23.0878,5.1367 v 0 0.6367 4.3652 0 z m 0.7753,0.6367 h 9.9981 v 4.3652 h -9.9981 z m 10.7696,0 v 0 4.3652 0 z m 0.7734,0 h 9.9981 v 4.3652 h -9.9981 z m 10.7695,0 v 0 4.3652 0 z m -23.0878,5.1367 v 0 0.6348 4.3652 0 z m 0.7753,0.6348 h 9.9981 v 4.3652 h -9.9981 z m 10.7696,0 v 0 4.3652 0 z m 0.7734,0 h 9.9981 v 4.3652 h -9.9981 z m 10.7695,0 v 0 4.3652 0 z m -23.0878,5.1367 v 0 0.6348 4.3652 0 z m 0.7753,0.6348 h 9.9981 v 4.3652 h -9.9981 z m 10.7696,0 v 0 4.3652 0 z m 0.7734,0 h 9.9981 v 4.3652 h -9.9981 z m 10.7695,0 v 0 4.3652 0 z m -23.0878,5.1367 v 0 0.6348 4.3652 0 z m 0.7753,0.6348 h 9.9981 v 4.3652 h -9.9981 z m 10.7696,0 v 0 4.3652 0 z m 0.7734,0 h 9.9981 v 4.3652 h -9.9981 z m 10.7695,0 v 0 4.3652 0 z"
           transform="matrix(0.26458333,0,0,0.26458333,0,-0.78843665)" />
      </g>
    </g>
    <g
       id="g5715"
       transform="translate(-548.87179,-281.93091)">
      <text
         xml:space="preserve"
         style="font-style:normal;font-variant:normal;font-weight:normal;font-stretch:normal;font-size:24.6944px;line-height:0;font-family:Gidolinya;-inkscape-font-specification:Gidolinya;text-align:start;letter-spacing:0px;word-spacing:0px;text-anchor:start;fill:#2c2c2c;fill-opacity:1;stroke:none;stroke-width:0.999992;stroke-miterlimit:4;stroke-dasharray:none"
         x="594.86316"
         y="360.50687"
         id="text2075"><tspan
           sodipodi:role="line"
           x="594.86316"
           y="360.50687"
           style="font-style:normal;font-variant:normal;font-weight:normal;font-stretch:normal;font-size:24.6944px;line-height:1.25;font-family:Gidolinya;-inkscape-font-specification:Gidolinya;fill:#2c2c2c;fill-opacity:1;stroke-width:0.999992;stroke-miterlimit:4;stroke-dasharray:none"
           id="tspan2073">Text</tspan></text>
      <g
         id="g2992"
         transform="translate(0,0.89539991)">
        <g
           id="g2942"
           transform="translate(0,15.875)">
          <path
             id="path2822"
             style="fill:#69abff;fill-opacity:1;stroke:none;stroke-width:0.409837;stroke-linecap:round;stroke-linejoin:round;stroke-opacity:0;paint-order:stroke fill markers"
             d="m 575.63101,323.70894 -0.0155,0.002 c -3.05554,1e-4 -5.91606,1.81491 -7.21612,4.58007 -2.83524,1.26661 -4.7136,4.15721 -4.71958,7.2626 v 0.015 c 3e-5,3.09809 1.86364,5.98789 4.68651,7.26414 1.28598,2.78921 4.15356,4.62626 7.2249,4.63229 h 0.015 c 3.05062,3e-5 5.90757,-1.80927 7.21043,-4.56768 0.008,-0.018 0.0153,-0.0363 0.0233,-0.0543 -0.008,0.0177 -0.0143,0.0361 -0.0222,0.0537 2.80096,-1.28119 4.65008,-4.15565 4.65603,-7.23572 v -0.015 c -0.56293,-3.25007 -2.1935,-6.02996 -4.57904,-7.21559 -1.26619,-2.83636 -4.15747,-4.71516 -7.26363,-4.72114 z" />
          <g
             id="g2828"
             transform="matrix(1.3195055,0,0,1.3195055,178.16712,-85.549949)">
            <g
               id="g2826"
               transform="matrix(0.62119796,0,0,0.62119796,188.94655,272.90089)">
              <path
                 id="path2824"
                 style="fill:url(#linearGradient2856);fill-opacity:1;stroke:none;stroke-width:1.54899;stroke-linecap:round;stroke-linejoin:round;stroke-opacity:0;paint-order:stroke fill markers"
                 d="m 2175.5547,1103.4727 c -11.5485,5e-4 -22.3599,6.8595 -27.2735,17.3105 3.6598,-1.5273 7.8854,-2.5091 11.8536,-2.5098 v 0 c 4.9801,8e-4 9.8739,1.4449 14.2519,3.8242 0.3491,-0.034 0.7027,-0.056 1.0606,-0.057 h 0.01 0.024 c 0.332,0 0.6598,0.022 0.9843,0.051 5.0881,-2.4778 8.9349,-3.3789 14.1836,-3.4316 4.4608,-0.045 8.8438,1.1211 12.4161,2.6562 -4.7856,-10.7201 -15.7134,-17.821 -27.4532,-17.8437 z m 27.5098,17.8437 c 1.528,3.6612 2.281,7.8858 2.2812,11.8555 -8e-4,4.9615 -1.2225,9.658 -3.5859,14.0234 0.031,0.3359 0.039,0.8534 0.039,1.1973 0,0.3368 -0.013,0.841 -0.043,1.1699 2.3486,4.3571 3.6757,9.0484 3.6757,13.9961 10e-5,4.1809 -0.969,8.6121 -2.6582,12.4336 10.5863,-4.8423 17.5752,-15.7065 17.5977,-27.3477 v -0.057 c -2.1276,-12.2837 -8.2903,-22.7904 -17.3066,-27.2715 z m -0.2911,54.6758 c -3.7293,1.5947 -8.0429,2.6116 -12.1015,2.6113 -4.954,-8e-4 -9.6455,-1.5643 -14.0059,-3.9297 -0.8635,4e-4 -1.7446,0 -2.5781,-0.033 -0.01,-0.076 -9.0257,3.6641 -13.9531,3.6641 -4.0145,0 -8.2811,-0.995 -11.9766,-2.5567 4.8604,10.5418 15.6983,17.4851 27.3066,17.5079 h 0.057 c 11.5299,10e-5 22.3277,-6.8382 27.2519,-17.2637 z m -54.6152,-0.2442 c -1.6211,-3.7549 -2.4451,-8.0969 -2.4453,-12.1894 8e-4,-5.039 1.0709,-9.991 3.4902,-14.4082 -0.01,-0.072 -0.011,-0.1433 -0.016,-0.2149 v 0 c -0.012,-0.2132 -0.018,-0.4251 -0.017,-0.6387 -10e-5,-0.016 -10e-5,-0.033 0,-0.049 8e-4,-0.1687 0,-0.3374 0.014,-0.5059 0.01,-0.075 0.011,-0.1499 0.018,-0.2246 -2.397,-4.4026 -3.5995,-10.1486 -3.5996,-15.164 0.2897,-4.3404 1.2221,-8.1864 2.6816,-11.5723 -10.7183,4.7863 -17.819,15.7128 -17.8417,27.4512 v 0.057 c 2e-4,11.7114 7.0463,22.6346 17.7187,27.457 z"
                 transform="matrix(0.32279088,0,0,0.32279088,-521.52815,-296.20828)" />
            </g>
          </g>
        </g>
        <g
           id="g2095"
           transform="matrix(0.93350755,0,0,0.93350755,398.87779,67.833477)"
           style="fill:#000000;fill-opacity:0.598522">
          <rect
             style="opacity:1;fill:#000000;fill-opacity:0.598522;stroke:none;stroke-width:0.3;stroke-linecap:round;stroke-linejoin:round;stroke-miterlimit:4;stroke-dasharray:none;stroke-opacity:1;paint-order:stroke markers fill"
             id="rect2083"
             width="12.421675"
             height="0.60454971"
             x="183.07353"
             y="300.44409" />
          <rect
             style="opacity:1;fill:#000000;fill-opacity:0.598522;stroke:none;stroke-width:0.3;stroke-linecap:round;stroke-linejoin:round;stroke-miterlimit:4;stroke-dasharray:none;stroke-opacity:1;paint-order:stroke markers fill"
             id="rect2085"
             width="12.421675"
             height="0.60454971"
             x="183.07353"
             y="302.03152" />
          <rect
             style="opacity:1;fill:#000000;fill-opacity:0.598522;stroke:none;stroke-width:0.239212;stroke-linecap:round;stroke-linejoin:round;stroke-miterlimit:4;stroke-dasharray:none;stroke-opacity:1;paint-order:stroke markers fill"
             id="rect2087"
             width="7.8977695"
             height="0.60454971"
             x="183.07353"
             y="303.61896" />
          <rect
             style="opacity:1;fill:#000000;fill-opacity:0.598522;stroke:none;stroke-width:0.175755;stroke-linecap:round;stroke-linejoin:round;stroke-miterlimit:4;stroke-dasharray:none;stroke-opacity:1;paint-order:stroke markers fill"
             id="rect2089"
             width="4.2633853"
             height="0.60454971"
             x="183.07353"
             y="306.79391" />
          <rect
             style="opacity:1;fill:#000000;fill-opacity:0.598522;stroke:none;stroke-width:0.175755;stroke-linecap:round;stroke-linejoin:round;stroke-miterlimit:4;stroke-dasharray:none;stroke-opacity:1;paint-order:stroke markers fill"
             id="rect2091"
             width="4.2633853"
             height="0.60454971"
             x="183.07353"
             y="308.38144" />
          <rect
             style="opacity:1;fill:#000000;fill-opacity:0.598522;stroke:none;stroke-width:0.3;stroke-linecap:round;stroke-linejoin:round;stroke-miterlimit:4;stroke-dasharray:none;stroke-opacity:1;paint-order:stroke markers fill"
             id="rect2093"
             width="12.421675"
             height="0.60454971"
             x="183.07353"
             y="298.85666" />
        </g>
      </g>
    </g>
    <g
       id="g5726"
       transform="translate(-548.87179,-297.80592)">
      <text
         xml:space="preserve"
         style="font-style:normal;font-variant:normal;font-weight:normal;font-stretch:normal;font-size:24.6944px;line-height:0;font-family:Gidolinya;-inkscape-font-specification:Gidolinya;text-align:start;letter-spacing:0px;word-spacing:0px;text-anchor:start;fill:#2c2c2c;fill-opacity:1;stroke:none;stroke-width:0.999992;stroke-miterlimit:4;stroke-dasharray:none"
         x="594.86316"
         y="408.13187"
         id="text2125"><tspan
           sodipodi:role="line"
           x="594.86316"
           y="408.13187"
           style="font-style:normal;font-variant:normal;font-weight:normal;font-stretch:normal;font-size:24.6944px;line-height:1.25;font-family:Gidolinya;-inkscape-font-specification:Gidolinya;fill:#2c2c2c;fill-opacity:1;stroke-width:0.999992;stroke-miterlimit:4;stroke-dasharray:none"
           id="tspan2123">Code</tspan></text>
      <g
         id="g3043">
        <g
           id="g3002"
           transform="translate(0,64.321317)">
          <path
             id="path2994"
             style="fill:#ff5caa;fill-opacity:1;stroke:none;stroke-width:0.409837;stroke-linecap:round;stroke-linejoin:round;stroke-opacity:0;paint-order:stroke fill markers"
             d="m 575.63101,323.70894 -0.0155,0.002 c -3.05554,1e-4 -5.91606,1.81491 -7.21612,4.58007 -2.83524,1.26661 -4.7136,4.15721 -4.71958,7.2626 v 0.015 c 3e-5,3.09809 1.86364,5.98789 4.68651,7.26414 1.28598,2.78921 4.15356,4.62626 7.2249,4.63229 h 0.015 c 3.05062,3e-5 5.90757,-1.80927 7.21043,-4.56768 0.008,-0.018 0.0153,-0.0363 0.0233,-0.0543 -0.008,0.0177 -0.0143,0.0361 -0.0222,0.0537 2.80096,-1.28119 4.65008,-4.15565 4.65603,-7.23572 v -0.015 c -0.56293,-3.25007 -2.1935,-6.02996 -4.57904,-7.21559 -1.26619,-2.83636 -4.15747,-4.71516 -7.26363,-4.72114 z" />
          <g
             id="g3000"
             transform="matrix(1.3195055,0,0,1.3195055,178.16712,-85.549949)">
            <g
               id="g2998"
               transform="matrix(0.62119796,0,0,0.62119796,188.94655,272.90089)">
              <path
                 id="path2996"
                 style="fill:url(#linearGradient802);fill-opacity:1;stroke:none;stroke-width:1.54899;stroke-linecap:round;stroke-linejoin:round;stroke-opacity:0;paint-order:stroke fill markers"
                 d="m 2175.5547,1103.4727 c -11.5485,5e-4 -22.3599,6.8595 -27.2735,17.3105 3.6598,-1.5273 7.8854,-2.5091 11.8536,-2.5098 v 0 c 4.9801,8e-4 9.8739,1.4449 14.2519,3.8242 0.3491,-0.034 0.7027,-0.056 1.0606,-0.057 h 0.01 0.024 c 0.332,0 0.6598,0.022 0.9843,0.051 5.0881,-2.4778 8.9349,-3.3789 14.1836,-3.4316 4.4608,-0.045 8.8438,1.1211 12.4161,2.6562 -4.7856,-10.7201 -15.7134,-17.821 -27.4532,-17.8437 z m 27.5098,17.8437 c 1.528,3.6612 2.281,7.8858 2.2812,11.8555 -8e-4,4.9615 -1.2225,9.658 -3.5859,14.0234 0.031,0.3359 0.039,0.8534 0.039,1.1973 0,0.3368 -0.013,0.841 -0.043,1.1699 2.3486,4.3571 3.6757,9.0484 3.6757,13.9961 10e-5,4.1809 -0.969,8.6121 -2.6582,12.4336 10.5863,-4.8423 17.5752,-15.7065 17.5977,-27.3477 v -0.057 c -2.1276,-12.2837 -8.2903,-22.7904 -17.3066,-27.2715 z m -0.2911,54.6758 c -3.7293,1.5947 -8.0429,2.6116 -12.1015,2.6113 -4.954,-8e-4 -9.6455,-1.5643 -14.0059,-3.9297 -0.8635,4e-4 -1.7446,0 -2.5781,-0.033 -0.01,-0.076 -9.0257,3.6641 -13.9531,3.6641 -4.0145,0 -8.2811,-0.995 -11.9766,-2.5567 4.8604,10.5418 15.6983,17.4851 27.3066,17.5079 h 0.057 c 11.5299,10e-5 22.3277,-6.8382 27.2519,-17.2637 z m -54.6152,-0.2442 c -1.6211,-3.7549 -2.4451,-8.0969 -2.4453,-12.1894 8e-4,-5.039 1.0709,-9.991 3.4902,-14.4082 -0.01,-0.072 -0.011,-0.1433 -0.016,-0.2149 v 0 c -0.012,-0.2132 -0.018,-0.4251 -0.017,-0.6387 -10e-5,-0.016 -10e-5,-0.033 0,-0.049 8e-4,-0.1687 0,-0.3374 0.014,-0.5059 0.01,-0.075 0.011,-0.1499 0.018,-0.2246 -2.397,-4.4026 -3.5995,-10.1486 -3.5996,-15.164 0.2897,-4.3404 1.2221,-8.1864 2.6816,-11.5723 -10.7183,4.7863 -17.819,15.7128 -17.8417,27.4512 v 0.057 c 2e-4,11.7114 7.0463,22.6346 17.7187,27.457 z"
                 transform="matrix(0.32279088,0,0,0.32279088,-521.52815,-296.20828)" />
            </g>
          </g>
        </g>
        <path
           id="path3458"
           style="color:#000000;font-style:normal;font-variant:normal;font-weight:normal;font-stretch:normal;font-size:5.24209px;line-height:1.25;font-family:saxMono;-inkscape-font-specification:saxMono;font-variant-ligatures:normal;font-variant-position:normal;font-variant-caps:normal;font-variant-numeric:normal;font-variant-alternates:normal;font-variant-east-asian:normal;font-feature-settings:normal;font-variation-settings:normal;text-indent:0;text-align:start;text-decoration:none;text-decoration-line:none;text-decoration-style:solid;text-decoration-color:#000000;letter-spacing:0px;word-spacing:0px;text-transform:none;writing-mode:lr-tb;direction:ltr;text-orientation:mixed;dominant-baseline:auto;baseline-shift:baseline;text-anchor:start;white-space:normal;shape-padding:0;shape-margin:0;inline-size:0;clip-rule:nonzero;display:inline;overflow:visible;visibility:visible;isolation:auto;mix-blend-mode:normal;color-interpolation:sRGB;color-interpolation-filters:linearRGB;solid-color:#000000;solid-opacity:1;vector-effect:none;fill:#000000;fill-opacity:0.598522;fill-rule:nonzero;stroke:none;stroke-width:0.711092;stroke-linecap:butt;stroke-linejoin:miter;stroke-miterlimit:4;stroke-dasharray:none;stroke-dashoffset:0;stroke-opacity:1;color-rendering:auto;image-rendering:auto;shape-rendering:auto;text-rendering:auto;enable-background:accumulate;stop-color:#000000"
           d="m 2171.9512,1492.2344 c -0.313,0 -0.599,0.141 -0.9004,0.3613 -0.3016,0.2203 -0.6235,0.5321 -0.9824,0.9375 -1.9459,2.1973 -2.9297,4.7344 -2.9297,7.5449 0,3.0065 0.8337,5.5924 2.5097,7.7207 0.4451,0.5671 0.8422,1.0032 1.211,1.3067 0.3689,0.3035 0.7154,0.4941 1.0918,0.4941 0.2377,0 0.4704,-0.1092 0.6347,-0.2793 0.1705,-0.1644 0.2813,-0.3969 0.2813,-0.6348 0,-0.4428 -0.2926,-0.7797 -0.7305,-1.1972 -1.9828,-1.8892 -2.9687,-4.3055 -2.9687,-7.336 0,-2.7152 0.9481,-4.9566 2.8652,-6.7988 0.251,-0.2411 0.4411,-0.4491 0.582,-0.6426 0.141,-0.1935 0.252,-0.3622 0.252,-0.6054 0,-0.237 -0.1215,-0.4725 -0.2949,-0.627 -0.1697,-0.1512 -0.393,-0.2441 -0.6211,-0.2441 z m 6.4297,0 c -0.2412,0 -0.473,0.1115 -0.6426,0.2812 h -0.01 v 0.01 c -0.1618,0.1712 -0.2657,0.3988 -0.2657,0.6347 0,0.4425 0.2934,0.7726 0.7305,1.1895 1.9832,1.8959 2.9688,4.3141 2.9688,7.3379 0,2.7285 -0.9487,4.9713 -2.8653,6.8066 -0.2509,0.2408 -0.4414,0.4494 -0.582,0.6407 -0.1406,0.1912 -0.252,0.3527 -0.252,0.5976 0,0.2389 0.1185,0.4797 0.295,0.6367 0.1697,0.1512 0.3929,0.2422 0.6211,0.2422 0.3129,0 0.5989,-0.141 0.9003,-0.3613 0.3017,-0.2204 0.6235,-0.5321 0.9825,-0.9375 1.9459,-2.1975 2.9375,-4.7282 2.9375,-7.5449 v -0.01 -0.061 -0.01 c -0.013,-2.9592 -0.8544,-5.5241 -2.5234,-7.6484 -0.448,-0.5699 -0.8426,-1.0019 -1.209,-1.3067 -0.3662,-0.3046 -0.7114,-0.5019 -1.0859,-0.5019 z m 14.041,0.2734 c -0.2903,0 -0.536,0.029 -0.7539,0.1172 -0.4848,0.1361 -0.8665,0.4953 -1.0918,0.9902 -0.2294,0.5038 -0.3321,1.1419 -0.3321,1.9336 v 3.8457 c 0,0.6004 -0.1454,0.8564 -0.289,0.9453 -0.03,0.01 -0.072,0.022 -0.1328,0.037 -0.135,0.03 -0.3354,0.07 -0.5977,0.1171 h -0.01 c -0.2192,0.041 -0.4245,0.1526 -0.5606,0.334 -0.136,0.1814 -0.1914,0.4057 -0.1914,0.6348 0,0.2268 0.053,0.448 0.1914,0.6269 0.1388,0.1792 0.3496,0.288 0.5684,0.3243 0.2555,0.045 0.4484,0.083 0.582,0.1113 0.064,0.015 0.1171,0.022 0.1485,0.029 0.1757,0.1028 0.289,0.3015 0.289,0.7754 v 4.1719 c 0,1.0619 0.1094,1.7904 0.5313,2.2441 0.3538,0.4241 0.8725,0.6562 1.4531,0.6562 h 1.166 c 0.288,0 0.564,-0.069 0.7696,-0.2519 0.2056,-0.1829 0.2949,-0.4621 0.2949,-0.7383 0,-0.2698 -0.075,-0.5347 -0.2656,-0.7226 -0.1909,-0.1879 -0.4535,-0.2579 -0.7246,-0.2579 h -0.9219 c -0.072,0 -0.1096,-0.015 -0.1856,-0.096 0.01,0.01 -0.053,-0.1026 -0.088,-0.3105 -0.034,-0.2124 -0.059,-0.5125 -0.059,-0.9004 v -3.7871 c 0,-0.6272 -0.1607,-1.1653 -0.5175,-1.5586 -0.1705,-0.1878 -0.4825,-0.2139 -0.7227,-0.3242 0.24,-0.11 0.5519,-0.1372 0.7227,-0.3242 0.3571,-0.3915 0.5175,-0.9344 0.5175,-1.5586 v -3.6016 c 0,-0.4487 0.018,-0.8074 0.051,-1.0488 0.03,-0.2415 0.1137,-0.3678 0.066,-0.3164 l 0.039,-0.045 0.022,-0.043 c 0.026,-0.058 0.013,-0.061 0.1562,-0.061 h 0.8926 c 0.2774,0 0.5404,-0.066 0.7383,-0.25 0.198,-0.1837 0.2812,-0.4543 0.2812,-0.7246 0,-0.274 -0.091,-0.5498 -0.2968,-0.7304 -0.206,-0.1807 -0.4803,-0.2422 -0.7676,-0.2422 z m -33.5293,3.2988 c -0.4614,0 -0.8722,0.117 -1.1582,0.3985 -0.2861,0.2816 -0.4063,0.6876 -0.4063,1.1445 0,0.4569 0.1201,0.8631 0.4063,1.1445 0.2861,0.2816 0.6968,0.3985 1.1582,0.3985 0.4504,0 0.8507,-0.1155 1.1289,-0.3985 0.2782,-0.2827 0.3926,-0.6895 0.3926,-1.1445 0,-0.4549 -0.1144,-0.8617 -0.3926,-1.1445 -0.2782,-0.2827 -0.6785,-0.3985 -1.1289,-0.3985 z m 0,7.7891 c -0.4614,0 -0.8722,0.117 -1.1582,0.3984 -0.2861,0.2816 -0.4063,0.6877 -0.4063,1.1446 0,0.4568 0.1201,0.8611 0.4063,1.1425 0.2861,0.2816 0.6968,0.3985 1.1582,0.3985 0.4504,0 0.8507,-0.1159 1.1289,-0.3985 0.2782,-0.2827 0.3926,-0.6876 0.3926,-1.1425 0,-0.455 -0.1144,-0.8617 -0.3926,-1.1446 -0.2782,-0.2827 -0.6785,-0.3984 -1.1289,-0.3984 z m 3.6465,13.4043 c -0.421,0 -0.7652,0.2985 -1.0039,0.709 l -6.9825,12.0762 c -0.1553,0.2683 -0.2656,0.4789 -0.2656,0.7382 0,0.2385 0.09,0.4916 0.2793,0.6504 0.1894,0.1588 0.4301,0.2071 0.6797,0.2071 0.3974,0 0.7451,-0.2566 0.959,-0.6211 l 6.9687,-12.0762 c 0.1709,-0.2993 0.2813,-0.5624 0.2813,-0.8418 0,-0.2298 -0.084,-0.4776 -0.2656,-0.6348 -0.1822,-0.1572 -0.4123,-0.207 -0.6504,-0.207 z m 5.3007,0 c -0.266,0 -0.5263,0.07 -0.7168,0.252 -0.1904,0.1817 -0.2656,0.4391 -0.2656,0.7011 0,0.1773 0.045,0.2843 0.1114,0.4434 0.066,0.1591 0.1579,0.3496 0.2792,0.582 0.1731,0.3311 0.4786,0.8406 0.7696,1.336 h -1.9785 c -0.2941,0 -0.5632,0.061 -0.7754,0.2363 -0.2124,0.1757 -0.3184,0.4558 -0.3184,0.7304 0,0.279 0.099,0.5653 0.3106,0.7461 0.2116,0.1811 0.4874,0.2442 0.7832,0.2442 h 1.9707 l -0.9532,1.6308 c -0.13,0.2223 -0.1992,0.4763 -0.1992,0.7305 0,0.2377 0.062,0.4787 0.2364,0.6504 0.1749,0.1716 0.4194,0.2363 0.6582,0.2363 0.4061,0 0.756,-0.271 0.9804,-0.6504 l 1.0039,-1.705 1.0196,1.7421 c 0.2071,0.3587 0.554,0.6133 0.9453,0.6133 0.2388,0 0.4778,-0.055 0.6562,-0.2207 0.1784,-0.1659 0.25,-0.4157 0.25,-0.6504 0,-0.223 -0.078,-0.4166 -0.1914,-0.6718 -0.1137,-0.2552 -0.2724,-0.5599 -0.4863,-0.9219 l -0.01,-0.01 c -0.1625,-0.2608 -0.3204,-0.517 -0.4805,-0.7754 h 1.9121 c 0.3156,0 0.6022,-0.063 0.8262,-0.2442 0.2241,-0.1806 0.332,-0.4702 0.332,-0.7597 0,-0.2774 -0.1208,-0.5651 -0.3457,-0.7305 -0.2249,-0.1652 -0.5013,-0.2226 -0.8125,-0.2226 h -1.9414 c 0.2997,-0.5135 0.6118,-1.0399 0.7891,-1.3731 0.1232,-0.2321 0.2147,-0.4243 0.2812,-0.5762 0.066,-0.1519 0.125,-0.2232 0.125,-0.4199 0,-0.254 -0.066,-0.504 -0.2441,-0.6875 -0.1777,-0.1837 -0.434,-0.2578 -0.6856,-0.2578 -0.3822,0 -0.7222,0.2431 -0.9238,0.5898 l -1.0176,1.7286 -1.0703,-1.8164 c -0.1738,-0.2952 -0.4884,-0.502 -0.8262,-0.502 z m 10.8653,0 c -0.2661,0 -0.5244,0.07 -0.7149,0.252 -0.1905,0.1817 -0.2734,0.4391 -0.2734,0.7011 0,0.1773 0.051,0.2843 0.1172,0.4434 0.066,0.1591 0.1599,0.3496 0.2812,0.582 0.1731,0.3311 0.4766,0.8406 0.7676,1.336 h -1.9785 c -0.2941,0 -0.571,0.061 -0.7832,0.2363 -0.212,0.1757 -0.3086,0.4558 -0.3086,0.7304 0,0.279 0.097,0.5653 0.3086,0.7461 0.2116,0.1811 0.4874,0.2442 0.7832,0.2442 h 1.9707 l -0.9512,1.6308 c -0.1304,0.2223 -0.207,0.4761 -0.207,0.7305 0,0.2377 0.068,0.4787 0.2422,0.6504 0.175,0.1716 0.4194,0.2363 0.6582,0.2363 0.4061,0 0.7561,-0.271 0.9805,-0.6504 l 1.0039,-1.705 1.0195,1.7421 c 0.2075,0.3557 0.5562,0.6133 0.9453,0.6133 0.2389,0 0.47,-0.055 0.6484,-0.2207 0.1784,-0.1659 0.252,-0.4157 0.252,-0.6504 0,-0.223 -0.072,-0.4166 -0.1856,-0.6718 -0.1137,-0.2552 -0.2723,-0.5599 -0.4863,-0.9219 h -0.01 v -0.01 c -0.1625,-0.2608 -0.3204,-0.517 -0.4805,-0.7754 h 1.9122 c 0.3155,0 0.6041,-0.063 0.8281,-0.2442 0.2241,-0.1806 0.332,-0.4702 0.332,-0.7597 0,-0.2774 -0.1228,-0.5651 -0.3477,-0.7305 -0.2248,-0.1652 -0.5012,-0.2226 -0.8124,-0.2226 h -1.9415 c 0.2998,-0.5135 0.6138,-1.0399 0.7911,-1.3731 0.1232,-0.2321 0.2127,-0.4243 0.2793,-0.5762 0.067,-0.1519 0.1191,-0.2232 0.1191,-0.4199 0,-0.254 -0.059,-0.504 -0.2363,-0.6875 -0.1777,-0.1837 -0.436,-0.2578 -0.6875,-0.2578 -0.38,0 -0.7198,0.2461 -0.9219,0.5898 l -1.0195,1.7286 -1.0704,-1.8164 c -0.1738,-0.2952 -0.4884,-0.502 -0.8261,-0.502 z m 16.4258,0 c -0.421,0 -0.7652,0.2985 -1.0039,0.709 l -6.9844,12.0762 c -0.1554,0.2683 -0.2656,0.4789 -0.2656,0.7382 0,0.2385 0.092,0.4916 0.2812,0.6504 0.1894,0.1588 0.4301,0.2071 0.6797,0.2071 0.3974,0 0.7451,-0.2566 0.959,-0.6211 h 0.01 l 6.9609,-12.0762 c 0.1709,-0.2993 0.2793,-0.5624 0.2793,-0.8418 0,-0.2298 -0.083,-0.4776 -0.2656,-0.6348 -0.1822,-0.1572 -0.4103,-0.207 -0.6484,-0.207 z"
           transform="scale(0.26458333)" />
      </g>
    </g>
    <g
       id="g5745"
       transform="translate(-548.87179,-313.68093)">
      <text
         xml:space="preserve"
         style="font-style:normal;font-variant:normal;font-weight:normal;font-stretch:normal;font-size:24.6944px;line-height:0;font-family:Gidolinya;-inkscape-font-specification:Gidolinya;text-align:start;letter-spacing:0px;word-spacing:0px;text-anchor:start;fill:#2c2c2c;fill-opacity:1;stroke:none;stroke-width:0.999992;stroke-miterlimit:4;stroke-dasharray:none"
         x="594.86316"
         y="455.7569"
         id="text2169"><tspan
           sodipodi:role="line"
           x="594.86316"
           y="455.7569"
           style="font-style:normal;font-variant:normal;font-weight:normal;font-stretch:normal;font-size:24.6944px;line-height:1.25;font-family:Gidolinya;-inkscape-font-specification:Gidolinya;fill:#2c2c2c;fill-opacity:1;stroke-width:0.999992;stroke-miterlimit:4;stroke-dasharray:none"
           id="tspan2167">Slide</tspan></text>
      <g
         id="g3032">
        <g
           id="g3014"
           transform="translate(0,111.94635)">
          <path
             id="path3006"
             style="fill:#f95d47;fill-opacity:1;stroke:none;stroke-width:0.409837;stroke-linecap:round;stroke-linejoin:round;stroke-opacity:0;paint-order:stroke fill markers"
             d="m 575.63101,323.70894 -0.0155,0.002 c -3.05554,1e-4 -5.91606,1.81491 -7.21612,4.58007 -2.83524,1.26661 -4.7136,4.15721 -4.71958,7.2626 v 0.015 c 3e-5,3.09809 1.86364,5.98789 4.68651,7.26414 1.28598,2.78921 4.15356,4.62626 7.2249,4.63229 h 0.015 c 3.05062,3e-5 5.90757,-1.80927 7.21043,-4.56768 0.008,-0.018 0.0153,-0.0363 0.0233,-0.0543 -0.008,0.0177 -0.0143,0.0361 -0.0222,0.0537 2.80096,-1.28119 4.65008,-4.15565 4.65603,-7.23572 v -0.015 c -0.56293,-3.25007 -2.1935,-6.02996 -4.57904,-7.21559 -1.26619,-2.83636 -4.15747,-4.71516 -7.26363,-4.72114 z" />
          <g
             id="g3012"
             transform="matrix(1.3195055,0,0,1.3195055,178.16712,-85.549949)">
            <g
               id="g3010"
               transform="matrix(0.62119796,0,0,0.62119796,188.94655,272.90089)">
              <path
                 id="path3008"
                 style="fill:url(#linearGradient800);fill-opacity:1;stroke:none;stroke-width:1.54899;stroke-linecap:round;stroke-linejoin:round;stroke-opacity:0;paint-order:stroke fill markers"
                 d="m 2175.5547,1103.4727 c -11.5485,5e-4 -22.3599,6.8595 -27.2735,17.3105 3.6598,-1.5273 7.8854,-2.5091 11.8536,-2.5098 v 0 c 4.9801,8e-4 9.8739,1.4449 14.2519,3.8242 0.3491,-0.034 0.7027,-0.056 1.0606,-0.057 h 0.01 0.024 c 0.332,0 0.6598,0.022 0.9843,0.051 5.0881,-2.4778 8.9349,-3.3789 14.1836,-3.4316 4.4608,-0.045 8.8438,1.1211 12.4161,2.6562 -4.7856,-10.7201 -15.7134,-17.821 -27.4532,-17.8437 z m 27.5098,17.8437 c 1.528,3.6612 2.281,7.8858 2.2812,11.8555 -8e-4,4.9615 -1.2225,9.658 -3.5859,14.0234 0.031,0.3359 0.039,0.8534 0.039,1.1973 0,0.3368 -0.013,0.841 -0.043,1.1699 2.3486,4.3571 3.6757,9.0484 3.6757,13.9961 10e-5,4.1809 -0.969,8.6121 -2.6582,12.4336 10.5863,-4.8423 17.5752,-15.7065 17.5977,-27.3477 v -0.057 c -2.1276,-12.2837 -8.2903,-22.7904 -17.3066,-27.2715 z m -0.2911,54.6758 c -3.7293,1.5947 -8.0429,2.6116 -12.1015,2.6113 -4.954,-8e-4 -9.6455,-1.5643 -14.0059,-3.9297 -0.8635,4e-4 -1.7446,0 -2.5781,-0.033 -0.01,-0.076 -9.0257,3.6641 -13.9531,3.6641 -4.0145,0 -8.2811,-0.995 -11.9766,-2.5567 4.8604,10.5418 15.6983,17.4851 27.3066,17.5079 h 0.057 c 11.5299,10e-5 22.3277,-6.8382 27.2519,-17.2637 z m -54.6152,-0.2442 c -1.6211,-3.7549 -2.4451,-8.0969 -2.4453,-12.1894 8e-4,-5.039 1.0709,-9.991 3.4902,-14.4082 -0.01,-0.072 -0.011,-0.1433 -0.016,-0.2149 v 0 c -0.012,-0.2132 -0.018,-0.4251 -0.017,-0.6387 -10e-5,-0.016 -10e-5,-0.033 0,-0.049 8e-4,-0.1687 0,-0.3374 0.014,-0.5059 0.01,-0.075 0.011,-0.1499 0.018,-0.2246 -2.397,-4.4026 -3.5995,-10.1486 -3.5996,-15.164 0.2897,-4.3404 1.2221,-8.1864 2.6816,-11.5723 -10.7183,4.7863 -17.819,15.7128 -17.8417,27.4512 v 0.057 c 2e-4,11.7114 7.0463,22.6346 17.7187,27.457 z"
                 transform="matrix(0.32279088,0,0,0.32279088,-521.52815,-296.20828)" />
            </g>
          </g>
        </g>
        <g
           id="g2193"
           transform="matrix(1.1377452,0,0,1.1377452,360.21875,100.92959)">
          <g
             id="g2183"
             transform="translate(-0.31565118,4.2333334)"
             style="fill:#000000;fill-opacity:0.449406">
            <rect
               style="fill:#000000;fill-opacity:0.449406;stroke:none;stroke-width:0.171165;stroke-linecap:round;stroke-linejoin:round;stroke-miterlimit:4;stroke-dasharray:none;stroke-opacity:1;paint-order:stroke markers fill"
               id="rect2177"
               width="3.2835195"
               height="3.3628397"
               x="184.3588"
               y="302.39252" />
            <rect
               style="fill:#000000;fill-opacity:0.670078;stroke:none;stroke-width:0.171165;stroke-linecap:round;stroke-linejoin:round;stroke-miterlimit:4;stroke-dasharray:none;stroke-opacity:1;paint-order:stroke markers fill"
               id="rect2179"
               width="6.677671"
               height="0.41456115"
               x="188.16357"
               y="302.39252" />
            <rect
               style="fill:#000000;fill-opacity:0.670078;stroke:none;stroke-width:0.122947;stroke-linecap:round;stroke-linejoin:round;stroke-miterlimit:4;stroke-dasharray:none;stroke-opacity:1;paint-order:stroke markers fill"
               id="rect2181"
               width="3.4453483"
               height="0.41456115"
               x="188.16357"
               y="303.45789" />
          </g>
          <rect
             style="fill:#000000;fill-opacity:0.464442;stroke:none;stroke-width:0.251682;stroke-linecap:round;stroke-linejoin:round;stroke-miterlimit:4;stroke-dasharray:none;stroke-opacity:1;paint-order:stroke markers fill"
             id="rect2185"
             width="7.7612348"
             height="0.77101958"
             x="185.29025"
             y="299.6188" />
          <g
             id="g2191"
             transform="translate(3.1750001,-5.2916666)"
             style="fill:#000000;fill-opacity:0.449406">
            <path
               style="opacity:1;fill:#000000;fill-opacity:0.449406;stroke:none;stroke-width:0.755906;stroke-linecap:round;stroke-linejoin:round;stroke-miterlimit:4;stroke-dasharray:none;stroke-opacity:1;paint-order:stroke markers fill"
               d="m 701.70117,1699.5156 a 7.4010493,7.4010493 0 0 0 -7.40039,7.4024 7.4010493,7.4010493 0 0 0 7.40039,7.4004 7.4010493,7.4010493 0 0 0 5.82422,-2.834 l -5.82422,-4.5664 2.33203,-7.0235 a 7.4010493,7.4010493 0 0 0 -2.33203,-0.377 z"
               transform="matrix(0.26458333,0,0,0.26458333,0,-142.87503)"
               id="path2187" />
            <path
               style="opacity:1;fill:#000000;fill-opacity:0.670078;stroke:none;stroke-width:0.224075;stroke-linecap:round;stroke-linejoin:round;stroke-miterlimit:4;stroke-dasharray:none;stroke-opacity:1;paint-order:stroke markers fill"
               id="path2189"
               sodipodi:type="arc"
               sodipodi:cx="185.9713"
               sodipodi:cy="308.62186"
               sodipodi:rx="2.1939542"
               sodipodi:ry="2.1939542"
               sodipodi:start="5.0329102"
               sodipodi:end="0.66508101"
               sodipodi:arc-type="slice"
               d="m 186.66253,306.53964 a 2.1939542,2.1939542 0 0 1 1.40948,1.44939 2.1939542,2.1939542 0 0 1 -0.37436,1.98677 l -1.72635,-1.35394 z" />
          </g>
        </g>
      </g>
    </g>
    <g
       id="g5760"
       transform="translate(-548.87179,-329.55594)">
      <text
         xml:space="preserve"
         style="font-style:normal;font-variant:normal;font-weight:normal;font-stretch:normal;font-size:24.6944px;line-height:0;font-family:Gidolinya;-inkscape-font-specification:Gidolinya;text-align:start;letter-spacing:0px;word-spacing:0px;text-anchor:start;fill:#2c2c2c;fill-opacity:1;stroke:none;stroke-width:0.999992;stroke-miterlimit:4;stroke-dasharray:none"
         x="594.86316"
         y="503.38193"
         id="text2223"><tspan
           sodipodi:role="line"
           x="594.86316"
           y="503.38193"
           style="font-style:normal;font-variant:normal;font-weight:normal;font-stretch:normal;font-size:24.6944px;line-height:1.25;font-family:Gidolinya;-inkscape-font-specification:Gidolinya;fill:#2c2c2c;fill-opacity:1;stroke-width:0.999992;stroke-miterlimit:4;stroke-dasharray:none"
           id="tspan2221">Poll</tspan></text>
      <g
         id="g3348">
        <g
           id="g3068"
           transform="translate(0,159.63311)">
          <path
             id="path3060"
             style="fill:#9ae80b;fill-opacity:1;stroke:none;stroke-width:0.409837;stroke-linecap:round;stroke-linejoin:round;stroke-opacity:0;paint-order:stroke fill markers"
             d="m 575.63101,323.70894 -0.0155,0.002 c -3.05554,1e-4 -5.91606,1.81491 -7.21612,4.58007 -2.83524,1.26661 -4.7136,4.15721 -4.71958,7.2626 v 0.015 c 3e-5,3.09809 1.86364,5.98789 4.68651,7.26414 1.28598,2.78921 4.15356,4.62626 7.2249,4.63229 h 0.015 c 3.05062,3e-5 5.90757,-1.80927 7.21043,-4.56768 0.008,-0.018 0.0153,-0.0363 0.0233,-0.0543 -0.008,0.0177 -0.0143,0.0361 -0.0222,0.0537 2.80096,-1.28119 4.65008,-4.15565 4.65603,-7.23572 v -0.015 c -0.56293,-3.25007 -2.1935,-6.02996 -4.57904,-7.21559 -1.26619,-2.83636 -4.15747,-4.71516 -7.26363,-4.72114 z" />
          <g
             id="g3066"
             transform="matrix(1.3195055,0,0,1.3195055,178.16712,-85.549949)">
            <g
               id="g3064"
               transform="matrix(0.62119796,0,0,0.62119796,188.94655,272.90089)">
              <path
                 id="path3062"
                 style="fill:url(#linearGradient798);fill-opacity:1;stroke:none;stroke-width:1.54899;stroke-linecap:round;stroke-linejoin:round;stroke-opacity:0;paint-order:stroke fill markers"
                 d="m 2175.5547,1103.4727 c -11.5485,5e-4 -22.3599,6.8595 -27.2735,17.3105 3.6598,-1.5273 7.8854,-2.5091 11.8536,-2.5098 v 0 c 4.9801,8e-4 9.8739,1.4449 14.2519,3.8242 0.3491,-0.034 0.7027,-0.056 1.0606,-0.057 h 0.01 0.024 c 0.332,0 0.6598,0.022 0.9843,0.051 5.0881,-2.4778 8.9349,-3.3789 14.1836,-3.4316 4.4608,-0.045 8.8438,1.1211 12.4161,2.6562 -4.7856,-10.7201 -15.7134,-17.821 -27.4532,-17.8437 z m 27.5098,17.8437 c 1.528,3.6612 2.281,7.8858 2.2812,11.8555 -8e-4,4.9615 -1.2225,9.658 -3.5859,14.0234 0.031,0.3359 0.039,0.8534 0.039,1.1973 0,0.3368 -0.013,0.841 -0.043,1.1699 2.3486,4.3571 3.6757,9.0484 3.6757,13.9961 10e-5,4.1809 -0.969,8.6121 -2.6582,12.4336 10.5863,-4.8423 17.5752,-15.7065 17.5977,-27.3477 v -0.057 c -2.1276,-12.2837 -8.2903,-22.7904 -17.3066,-27.2715 z m -0.2911,54.6758 c -3.7293,1.5947 -8.0429,2.6116 -12.1015,2.6113 -4.954,-8e-4 -9.6455,-1.5643 -14.0059,-3.9297 -0.8635,4e-4 -1.7446,0 -2.5781,-0.033 -0.01,-0.076 -9.0257,3.6641 -13.9531,3.6641 -4.0145,0 -8.2811,-0.995 -11.9766,-2.5567 4.8604,10.5418 15.6983,17.4851 27.3066,17.5079 h 0.057 c 11.5299,10e-5 22.3277,-6.8382 27.2519,-17.2637 z m -54.6152,-0.2442 c -1.6211,-3.7549 -2.4451,-8.0969 -2.4453,-12.1894 8e-4,-5.039 1.0709,-9.991 3.4902,-14.4082 -0.01,-0.072 -0.011,-0.1433 -0.016,-0.2149 v 0 c -0.012,-0.2132 -0.018,-0.4251 -0.017,-0.6387 -10e-5,-0.016 -10e-5,-0.033 0,-0.049 8e-4,-0.1687 0,-0.3374 0.014,-0.5059 0.01,-0.075 0.011,-0.1499 0.018,-0.2246 -2.397,-4.4026 -3.5995,-10.1486 -3.5996,-15.164 0.2897,-4.3404 1.2221,-8.1864 2.6816,-11.5723 -10.7183,4.7863 -17.819,15.7128 -17.8417,27.4512 v 0.057 c 2e-4,11.7114 7.0463,22.6346 17.7187,27.457 z"
                 transform="matrix(0.32279088,0,0,0.32279088,-521.52815,-296.20828)" />
            </g>
          </g>
        </g>
        <g
           id="g2237"
           transform="matrix(1,0,0,0.85798293,386.29179,233.78644)"
           style="fill:#000000;fill-opacity:0.364539">
          <rect
             style="fill:#000000;fill-opacity:0.364539;stroke:none;stroke-width:0.521273;stroke-linecap:round;stroke-linejoin:round;stroke-miterlimit:4;stroke-dasharray:none;stroke-opacity:1;paint-order:stroke markers fill"
             id="rect2231"
             width="11.446632"
             height="1.9807218"
             x="-310.52036"
             y="187.02075"
             transform="rotate(-90)" />
          <rect
             style="fill:#000000;fill-opacity:0.364539;stroke:none;stroke-width:0.464967;stroke-linecap:round;stroke-linejoin:round;stroke-miterlimit:4;stroke-dasharray:none;stroke-opacity:1;paint-order:stroke markers fill"
             id="rect2233"
             width="9.1073141"
             height="1.9807218"
             x="-310.52036"
             y="189.63499"
             transform="rotate(-90)" />
          <rect
             style="fill:#000000;fill-opacity:0.364539;stroke:none;stroke-width:0.390618;stroke-linecap:round;stroke-linejoin:round;stroke-miterlimit:4;stroke-dasharray:none;stroke-opacity:1;paint-order:stroke markers fill"
             id="rect2235"
             width="6.4276619"
             height="1.9807218"
             x="-310.52036"
             y="184.40648"
             transform="rotate(-90)" />
          <rect
             style="fill:#000000;fill-opacity:0.364539;stroke:none;stroke-width:0.349924;stroke-linecap:round;stroke-linejoin:round;stroke-miterlimit:4;stroke-dasharray:none;stroke-opacity:1;paint-order:stroke markers fill"
             id="rect3072"
             width="5.1581864"
             height="1.9807218"
             x="-310.52036"
             y="192.34395"
             transform="rotate(-90)" />
        </g>
      </g>
    </g>
    <g
       id="g5777"
       transform="translate(-548.87179,-345.43095)">
      <text
         xml:space="preserve"
         style="font-style:normal;font-variant:normal;font-weight:normal;font-stretch:normal;font-size:24.6944px;line-height:0;font-family:Gidolinya;-inkscape-font-specification:Gidolinya;text-align:start;letter-spacing:0px;word-spacing:0px;text-anchor:start;fill:#2c2c2c;fill-opacity:1;stroke:none;stroke-width:0.999992;stroke-miterlimit:4;stroke-dasharray:none"
         x="594.86316"
         y="551.00696"
         id="text2267"><tspan
           sodipodi:role="line"
           x="594.86316"
           y="551.00696"
           style="font-style:normal;font-variant:normal;font-weight:normal;font-stretch:normal;font-size:24.6944px;line-height:1.25;font-family:Gidolinya;-inkscape-font-specification:Gidolinya;fill:#2c2c2c;fill-opacity:1;stroke-width:0.999992;stroke-miterlimit:4;stroke-dasharray:none"
           id="tspan2265">Dash</tspan></text>
      <g
         id="g3363">
        <g
           id="g3082"
           transform="translate(0,206.37507)">
          <path
             id="path3074"
             style="fill:#32f5b6;fill-opacity:1;stroke:none;stroke-width:0.409837;stroke-linecap:round;stroke-linejoin:round;stroke-opacity:0;paint-order:stroke fill markers"
             d="m 575.63101,323.70894 -0.0155,0.002 c -3.05554,1e-4 -5.91606,1.81491 -7.21612,4.58007 -2.83524,1.26661 -4.7136,4.15721 -4.71958,7.2626 v 0.015 c 3e-5,3.09809 1.86364,5.98789 4.68651,7.26414 1.28598,2.78921 4.15356,4.62626 7.2249,4.63229 h 0.015 c 3.05062,3e-5 5.90757,-1.80927 7.21043,-4.56768 0.008,-0.018 0.0153,-0.0363 0.0233,-0.0543 -0.008,0.0177 -0.0143,0.0361 -0.0222,0.0537 2.80096,-1.28119 4.65008,-4.15565 4.65603,-7.23572 v -0.015 c -0.56293,-3.25007 -2.1935,-6.02996 -4.57904,-7.21559 -1.26619,-2.83636 -4.15747,-4.71516 -7.26363,-4.72114 z" />
          <g
             id="g3080"
             transform="matrix(1.3195055,0,0,1.3195055,178.16712,-85.549949)">
            <g
               id="g3078"
               transform="matrix(0.62119796,0,0,0.62119796,188.94655,272.90089)">
              <path
                 id="path3076"
                 style="fill:url(#linearGradient796);fill-opacity:1;stroke:none;stroke-width:1.54899;stroke-linecap:round;stroke-linejoin:round;stroke-opacity:0;paint-order:stroke fill markers"
                 d="m 2175.5547,1103.4727 c -11.5485,5e-4 -22.3599,6.8595 -27.2735,17.3105 3.6598,-1.5273 7.8854,-2.5091 11.8536,-2.5098 v 0 c 4.9801,8e-4 9.8739,1.4449 14.2519,3.8242 0.3491,-0.034 0.7027,-0.056 1.0606,-0.057 h 0.01 0.024 c 0.332,0 0.6598,0.022 0.9843,0.051 5.0881,-2.4778 8.9349,-3.3789 14.1836,-3.4316 4.4608,-0.045 8.8438,1.1211 12.4161,2.6562 -4.7856,-10.7201 -15.7134,-17.821 -27.4532,-17.8437 z m 27.5098,17.8437 c 1.528,3.6612 2.281,7.8858 2.2812,11.8555 -8e-4,4.9615 -1.2225,9.658 -3.5859,14.0234 0.031,0.3359 0.039,0.8534 0.039,1.1973 0,0.3368 -0.013,0.841 -0.043,1.1699 2.3486,4.3571 3.6757,9.0484 3.6757,13.9961 10e-5,4.1809 -0.969,8.6121 -2.6582,12.4336 10.5863,-4.8423 17.5752,-15.7065 17.5977,-27.3477 v -0.057 c -2.1276,-12.2837 -8.2903,-22.7904 -17.3066,-27.2715 z m -0.2911,54.6758 c -3.7293,1.5947 -8.0429,2.6116 -12.1015,2.6113 -4.954,-8e-4 -9.6455,-1.5643 -14.0059,-3.9297 -0.8635,4e-4 -1.7446,0 -2.5781,-0.033 -0.01,-0.076 -9.0257,3.6641 -13.9531,3.6641 -4.0145,0 -8.2811,-0.995 -11.9766,-2.5567 4.8604,10.5418 15.6983,17.4851 27.3066,17.5079 h 0.057 c 11.5299,10e-5 22.3277,-6.8382 27.2519,-17.2637 z m -54.6152,-0.2442 c -1.6211,-3.7549 -2.4451,-8.0969 -2.4453,-12.1894 8e-4,-5.039 1.0709,-9.991 3.4902,-14.4082 -0.01,-0.072 -0.011,-0.1433 -0.016,-0.2149 v 0 c -0.012,-0.2132 -0.018,-0.4251 -0.017,-0.6387 -10e-5,-0.016 -10e-5,-0.033 0,-0.049 8e-4,-0.1687 0,-0.3374 0.014,-0.5059 0.01,-0.075 0.011,-0.1499 0.018,-0.2246 -2.397,-4.4026 -3.5995,-10.1486 -3.5996,-15.164 0.2897,-4.3404 1.2221,-8.1864 2.6816,-11.5723 -10.7183,4.7863 -17.819,15.7128 -17.8417,27.4512 v 0.057 c 2e-4,11.7114 7.0463,22.6346 17.7187,27.457 z"
                 transform="matrix(0.32279088,0,0,0.32279088,-521.52815,-296.20828)" />
            </g>
          </g>
        </g>
        <g
           id="g3409"
           style="fill:#000000;fill-opacity:0.396473">
          <rect
             style="opacity:1;fill:#000000;fill-opacity:0.396473;stroke:none;stroke-width:0.29474;stroke-linecap:round;stroke-linejoin:round;stroke-miterlimit:4;stroke-dasharray:none;stroke-opacity:1;paint-order:stroke markers fill"
             id="rect2275"
             width="3.2169232"
             height="3.2169232"
             x="570.12103"
             y="536.63226" />
          <rect
             style="opacity:1;fill:#000000;fill-opacity:0.396473;stroke:none;stroke-width:0.29474;stroke-linecap:round;stroke-linejoin:round;stroke-miterlimit:4;stroke-dasharray:none;stroke-opacity:1;paint-order:stroke markers fill"
             id="rect2277"
             width="3.2169232"
             height="3.2169232"
             x="574.08539"
             y="536.63226" />
          <rect
             style="opacity:1;fill:#000000;fill-opacity:0.396473;stroke:none;stroke-width:0.29474;stroke-linecap:round;stroke-linejoin:round;stroke-miterlimit:4;stroke-dasharray:none;stroke-opacity:1;paint-order:stroke markers fill"
             id="rect2279"
             width="3.2169232"
             height="3.2169232"
             x="578.04968"
             y="536.63226" />
          <rect
             style="opacity:1;fill:#000000;fill-opacity:0.396473;stroke:none;stroke-width:0.29474;stroke-linecap:round;stroke-linejoin:round;stroke-miterlimit:4;stroke-dasharray:none;stroke-opacity:1;paint-order:stroke markers fill"
             id="rect2281"
             width="3.2169232"
             height="3.2169232"
             x="570.12103"
             y="540.53796" />
          <rect
             style="opacity:1;fill:#000000;fill-opacity:0.396473;stroke:none;stroke-width:0.29474;stroke-linecap:round;stroke-linejoin:round;stroke-miterlimit:4;stroke-dasharray:none;stroke-opacity:1;paint-order:stroke markers fill"
             id="rect2283"
             width="3.2169232"
             height="3.2169232"
             x="574.08539"
             y="540.53796" />
          <rect
             style="opacity:1;fill:#000000;fill-opacity:0.396473;stroke:none;stroke-width:0.29474;stroke-linecap:round;stroke-linejoin:round;stroke-miterlimit:4;stroke-dasharray:none;stroke-opacity:1;paint-order:stroke markers fill"
             id="rect2285"
             width="3.2169232"
             height="3.2169232"
             x="574.08539"
             y="544.44366" />
        </g>
      </g>
    </g>
    <g
       id="g5792"
       transform="translate(-548.87179,-361.30596)">
      <text
         xml:space="preserve"
         style="font-style:normal;font-variant:normal;font-weight:normal;font-stretch:normal;font-size:24.6944px;line-height:0;font-family:Gidolinya;-inkscape-font-specification:Gidolinya;text-align:start;letter-spacing:0px;word-spacing:0px;text-anchor:start;fill:#2c2c2c;fill-opacity:1;stroke:none;stroke-width:0.999992;stroke-miterlimit:4;stroke-dasharray:none"
         x="594.86316"
         y="598.63202"
         id="text2317"><tspan
           sodipodi:role="line"
           x="594.86316"
           y="598.63202"
           style="font-style:normal;font-variant:normal;font-weight:normal;font-stretch:normal;font-size:24.6944px;line-height:1.25;font-family:Gidolinya;-inkscape-font-specification:Gidolinya;fill:#2c2c2c;fill-opacity:1;stroke-width:0.999992;stroke-miterlimit:4;stroke-dasharray:none"
           id="tspan2315">Board</tspan></text>
      <g
         id="g3375">
        <g
           id="g3114"
           transform="translate(0,254.52927)">
          <path
             id="path3106"
             style="fill:#dbdbdb;fill-opacity:1;stroke:none;stroke-width:0.409837;stroke-linecap:round;stroke-linejoin:round;stroke-opacity:0;paint-order:stroke fill markers"
             d="m 575.63101,323.70894 -0.0155,0.002 c -3.05554,1e-4 -5.91606,1.81491 -7.21612,4.58007 -2.83524,1.26661 -4.7136,4.15721 -4.71958,7.2626 v 0.015 c 3e-5,3.09809 1.86364,5.98789 4.68651,7.26414 1.28598,2.78921 4.15356,4.62626 7.2249,4.63229 h 0.015 c 3.05062,3e-5 5.90757,-1.80927 7.21043,-4.56768 0.008,-0.018 0.0153,-0.0363 0.0233,-0.0543 -0.008,0.0177 -0.0143,0.0361 -0.0222,0.0537 2.80096,-1.28119 4.65008,-4.15565 4.65603,-7.23572 v -0.015 c -0.56293,-3.25007 -2.1935,-6.02996 -4.57904,-7.21559 -1.26619,-2.83636 -4.15747,-4.71516 -7.26363,-4.72114 z" />
          <g
             id="g3112"
             transform="matrix(1.3195055,0,0,1.3195055,178.16712,-85.549949)">
            <g
               id="g3110"
               transform="matrix(0.62119796,0,0,0.62119796,188.94655,272.90089)">
              <path
                 id="path3108"
                 style="fill:url(#linearGradient794);fill-opacity:1;stroke:none;stroke-width:1.54899;stroke-linecap:round;stroke-linejoin:round;stroke-opacity:0;paint-order:stroke fill markers"
                 d="m 2175.5547,1103.4727 c -11.5485,5e-4 -22.3599,6.8595 -27.2735,17.3105 3.6598,-1.5273 7.8854,-2.5091 11.8536,-2.5098 v 0 c 4.9801,8e-4 9.8739,1.4449 14.2519,3.8242 0.3491,-0.034 0.7027,-0.056 1.0606,-0.057 h 0.01 0.024 c 0.332,0 0.6598,0.022 0.9843,0.051 5.0881,-2.4778 8.9349,-3.3789 14.1836,-3.4316 4.4608,-0.045 8.8438,1.1211 12.4161,2.6562 -4.7856,-10.7201 -15.7134,-17.821 -27.4532,-17.8437 z m 27.5098,17.8437 c 1.528,3.6612 2.281,7.8858 2.2812,11.8555 -8e-4,4.9615 -1.2225,9.658 -3.5859,14.0234 0.031,0.3359 0.039,0.8534 0.039,1.1973 0,0.3368 -0.013,0.841 -0.043,1.1699 2.3486,4.3571 3.6757,9.0484 3.6757,13.9961 10e-5,4.1809 -0.969,8.6121 -2.6582,12.4336 10.5863,-4.8423 17.5752,-15.7065 17.5977,-27.3477 v -0.057 c -2.1276,-12.2837 -8.2903,-22.7904 -17.3066,-27.2715 z m -0.2911,54.6758 c -3.7293,1.5947 -8.0429,2.6116 -12.1015,2.6113 -4.954,-8e-4 -9.6455,-1.5643 -14.0059,-3.9297 -0.8635,4e-4 -1.7446,0 -2.5781,-0.033 -0.01,-0.076 -9.0257,3.6641 -13.9531,3.6641 -4.0145,0 -8.2811,-0.995 -11.9766,-2.5567 4.8604,10.5418 15.6983,17.4851 27.3066,17.5079 h 0.057 c 11.5299,10e-5 22.3277,-6.8382 27.2519,-17.2637 z m -54.6152,-0.2442 c -1.6211,-3.7549 -2.4451,-8.0969 -2.4453,-12.1894 8e-4,-5.039 1.0709,-9.991 3.4902,-14.4082 -0.01,-0.072 -0.011,-0.1433 -0.016,-0.2149 v 0 c -0.012,-0.2132 -0.018,-0.4251 -0.017,-0.6387 -10e-5,-0.016 -10e-5,-0.033 0,-0.049 8e-4,-0.1687 0,-0.3374 0.014,-0.5059 0.01,-0.075 0.011,-0.1499 0.018,-0.2246 -2.397,-4.4026 -3.5995,-10.1486 -3.5996,-15.164 0.2897,-4.3404 1.2221,-8.1864 2.6816,-11.5723 -10.7183,4.7863 -17.819,15.7128 -17.8417,27.4512 v 0.057 c 2e-4,11.7114 7.0463,22.6346 17.7187,27.457 z"
                 transform="matrix(0.32279088,0,0,0.32279088,-521.52815,-296.20828)" />
            </g>
          </g>
        </g>
        <g
           id="g2327"
           transform="rotate(8.3909945,56.736082,3199.7404)"
           style="fill:#000000;fill-opacity:0.604143;stroke:none;stroke-width:1;stroke-miterlimit:4;stroke-dasharray:none;stroke-opacity:1">
          <g
             id="g3125"
             style="opacity:0.426077;fill:#000000;fill-opacity:0.604143;stroke:none;stroke-width:1;stroke-miterlimit:4;stroke-dasharray:none;stroke-opacity:1">
            <g
               id="g3132"
               style="opacity:1;fill:#000000;fill-opacity:0.604143;stroke:none;stroke-width:1;stroke-miterlimit:4;stroke-dasharray:none">
              <path
                 id="path3160"
                 style="color:#000000;font-style:normal;font-variant:normal;font-weight:normal;font-stretch:normal;font-size:medium;line-height:normal;font-family:sans-serif;font-variant-ligatures:normal;font-variant-position:normal;font-variant-caps:normal;font-variant-numeric:normal;font-variant-alternates:normal;font-variant-east-asian:normal;font-feature-settings:normal;font-variation-settings:normal;text-indent:0;text-align:start;text-decoration:none;text-decoration-line:none;text-decoration-style:solid;text-decoration-color:#000000;letter-spacing:normal;word-spacing:normal;text-transform:none;writing-mode:lr-tb;direction:ltr;text-orientation:mixed;dominant-baseline:auto;baseline-shift:baseline;text-anchor:start;white-space:normal;shape-padding:0;shape-margin:0;inline-size:0;clip-rule:nonzero;display:inline;overflow:visible;visibility:visible;isolation:auto;mix-blend-mode:normal;color-interpolation:sRGB;color-interpolation-filters:linearRGB;solid-color:#000000;solid-opacity:1;vector-effect:none;fill:#000000;fill-opacity:0.818302;fill-rule:nonzero;stroke:none;stroke-width:1.22755;stroke-linecap:round;stroke-linejoin:round;stroke-miterlimit:4;stroke-dasharray:none;stroke-dashoffset:0;stroke-opacity:1;paint-order:stroke markers fill;color-rendering:auto;image-rendering:auto;shape-rendering:auto;text-rendering:auto;enable-background:accumulate;stop-color:#000000;stop-opacity:1"
                 d="m 186.41016,536.57227 c -0.0938,0.007 -0.0299,0.003 0,0 z m -0.0488,0.004 c -0.5447,0.22357 -0.97066,0.69806 -1.27531,1.19133 -0.22309,0.4588 -0.52783,1.06982 -0.11552,1.51964 0.38211,0.50075 1.08021,0.38964 1.57736,0.15222 0.7513,-0.20747 1.4813,-0.48435 2.21559,-0.74407 -0.94855,0.80243 -1.90366,1.60005 -2.89067,2.35362 -0.54599,0.46291 -1.11852,0.92787 -1.54682,1.50073 -0.30519,0.55167 0.23228,1.31457 0.8596,1.13599 0.62845,-0.2033 1.03657,-0.79169 1.65238,-1.03718 1.15869,-0.57887 2.4198,-0.93174 3.56927,-1.528 -0.10519,0.0754 -0.8685,0.55767 -1.18612,0.82288 -1.34166,1.07767 -2.79309,2.06595 -3.82789,3.46723 -0.53732,0.7014 -1.00302,1.45742 -1.44376,2.22026 -0.33763,0.5611 0.19995,1.3924 0.86117,1.16654 0.68361,-0.27054 1.01198,-1.00796 1.63854,-1.37117 0.71813,-0.46099 1.58989,-0.58102 2.37589,-0.88989 2.06746,-0.71224 4.17153,-1.36545 6.12453,-2.36227 0.40985,-0.23094 1.16197,-0.61962 0.83458,-1.19926 -0.40587,-0.24515 -0.74556,-0.61128 -1.2016,-0.65579 -0.30664,0.19125 0.0876,-0.0397 -0.2765,0.12776 -1.25891,0.69063 -2.50548,1.45657 -3.9014,1.84024 -0.63411,-0.12891 -1.20148,0.25693 -1.7774,0.464 -0.2253,0.0872 -0.60889,0.26832 -0.23161,-0.0128 1.39508,-1.16604 2.41895,-2.71293 3.85713,-3.83262 0.55662,-0.38754 0.36023,-1.4119 -0.39409,-1.34284 -0.86876,0.0986 -1.64902,0.56003 -2.48909,0.78304 -0.30621,0.0623 -1.38388,0.56045 -0.68442,0.0689 0.93862,-0.79253 1.79367,-1.67948 2.60707,-2.59697 0.3841,-0.60296 -0.34123,-1.39244 -0.96986,-1.02814 -1.23148,0.40754 -2.45575,0.8373 -3.69113,1.23348 0.56263,-0.27511 0.60618,-1.24729 -0.0464,-1.43731 -0.0726,-0.0193 -0.14978,-0.0238 -0.22355,-0.01 z" />
            </g>
            <g
               id="g3138"
               style="opacity:1;fill:#000000;fill-opacity:0.604143;stroke:none;stroke-width:1;stroke-miterlimit:4;stroke-dasharray:none" />
          </g>
        </g>
      </g>
    </g>
    <g
       id="g5808"
       transform="translate(-548.87179,-377.18097)">
      <text
         xml:space="preserve"
         style="font-style:normal;font-variant:normal;font-weight:normal;font-stretch:normal;font-size:24.6944px;line-height:0;font-family:Gidolinya;-inkscape-font-specification:Gidolinya;text-align:start;letter-spacing:0px;word-spacing:0px;text-anchor:start;fill:#2c2c2c;fill-opacity:1;stroke:none;stroke-width:0.999992;stroke-miterlimit:4;stroke-dasharray:none"
         x="594.86316"
         y="646.25702"
         id="text2357"><tspan
           sodipodi:role="line"
           x="594.86316"
           y="646.25702"
           style="font-style:normal;font-variant:normal;font-weight:normal;font-stretch:normal;font-size:24.6944px;line-height:1.25;font-family:Gidolinya;-inkscape-font-specification:Gidolinya;fill:#2c2c2c;fill-opacity:1;stroke-width:0.999992;stroke-miterlimit:4;stroke-dasharray:none"
           id="tspan2355">Drive</tspan></text>
      <g
         id="g3388">
        <g
           id="g3247"
           transform="translate(0,301.62513)">
          <path
             id="path3239"
             style="fill:#ffee0d;fill-opacity:1;stroke:none;stroke-width:0.409837;stroke-linecap:round;stroke-linejoin:round;stroke-opacity:0;paint-order:stroke fill markers"
             d="m 575.63101,323.70894 -0.0155,0.002 c -3.05554,1e-4 -5.91606,1.81491 -7.21612,4.58007 -2.83524,1.26661 -4.7136,4.15721 -4.71958,7.2626 v 0.015 c 3e-5,3.09809 1.86364,5.98789 4.68651,7.26414 1.28598,2.78921 4.15356,4.62626 7.2249,4.63229 h 0.015 c 3.05062,3e-5 5.90757,-1.80927 7.21043,-4.56768 0.008,-0.018 0.0153,-0.0363 0.0233,-0.0543 -0.008,0.0177 -0.0143,0.0361 -0.0222,0.0537 2.80096,-1.28119 4.65008,-4.15565 4.65603,-7.23572 v -0.015 c -0.56293,-3.25007 -2.1935,-6.02996 -4.57904,-7.21559 -1.26619,-2.83636 -4.15747,-4.71516 -7.26363,-4.72114 z" />
          <g
             id="g3245"
             transform="matrix(1.3195055,0,0,1.3195055,178.16712,-85.549949)">
            <g
               id="g3243"
               transform="matrix(0.62119796,0,0,0.62119796,188.94655,272.90089)">
              <path
                 id="path3241"
                 style="fill:url(#linearGradient3249);fill-opacity:1;stroke:none;stroke-width:1.54899;stroke-linecap:round;stroke-linejoin:round;stroke-opacity:0;paint-order:stroke fill markers"
                 d="m 2175.5547,1103.4727 c -11.5485,5e-4 -22.3599,6.8595 -27.2735,17.3105 3.6598,-1.5273 7.8854,-2.5091 11.8536,-2.5098 v 0 c 4.9801,8e-4 9.8739,1.4449 14.2519,3.8242 0.3491,-0.034 0.7027,-0.056 1.0606,-0.057 h 0.01 0.024 c 0.332,0 0.6598,0.022 0.9843,0.051 5.0881,-2.4778 8.9349,-3.3789 14.1836,-3.4316 4.4608,-0.045 8.8438,1.1211 12.4161,2.6562 -4.7856,-10.7201 -15.7134,-17.821 -27.4532,-17.8437 z m 27.5098,17.8437 c 1.528,3.6612 2.281,7.8858 2.2812,11.8555 -8e-4,4.9615 -1.2225,9.658 -3.5859,14.0234 0.031,0.3359 0.039,0.8534 0.039,1.1973 0,0.3368 -0.013,0.841 -0.043,1.1699 2.3486,4.3571 3.6757,9.0484 3.6757,13.9961 10e-5,4.1809 -0.969,8.6121 -2.6582,12.4336 10.5863,-4.8423 17.5752,-15.7065 17.5977,-27.3477 v -0.057 c -2.1276,-12.2837 -8.2903,-22.7904 -17.3066,-27.2715 z m -0.2911,54.6758 c -3.7293,1.5947 -8.0429,2.6116 -12.1015,2.6113 -4.954,-8e-4 -9.6455,-1.5643 -14.0059,-3.9297 -0.8635,4e-4 -1.7446,0 -2.5781,-0.033 -0.01,-0.076 -9.0257,3.6641 -13.9531,3.6641 -4.0145,0 -8.2811,-0.995 -11.9766,-2.5567 4.8604,10.5418 15.6983,17.4851 27.3066,17.5079 h 0.057 c 11.5299,10e-5 22.3277,-6.8382 27.2519,-17.2637 z m -54.6152,-0.2442 c -1.6211,-3.7549 -2.4451,-8.0969 -2.4453,-12.1894 8e-4,-5.039 1.0709,-9.991 3.4902,-14.4082 -0.01,-0.072 -0.011,-0.1433 -0.016,-0.2149 v 0 c -0.012,-0.2132 -0.018,-0.4251 -0.017,-0.6387 -10e-5,-0.016 -10e-5,-0.033 0,-0.049 8e-4,-0.1687 0,-0.3374 0.014,-0.5059 0.01,-0.075 0.011,-0.1499 0.018,-0.2246 -2.397,-4.4026 -3.5995,-10.1486 -3.5996,-15.164 0.2897,-4.3404 1.2221,-8.1864 2.6816,-11.5723 -10.7183,4.7863 -17.819,15.7128 -17.8417,27.4512 v 0.057 c 2e-4,11.7114 7.0463,22.6346 17.7187,27.457 z"
                 transform="matrix(0.32279088,0,0,0.32279088,-521.52815,-296.20828)" />
            </g>
          </g>
        </g>
        <g
           id="g2373"
           transform="translate(386.29179,95.250005)">
          <g
             id="g2371"
             transform="matrix(0.88424976,0,0,0.88424976,21.909713,273.39325)">
            <g
               id="g2367"
               style="fill:#000000;fill-opacity:0.15"
               transform="matrix(0.94510813,0,0,1.1005032,23.238734,-2.7682065)">
              <path
                 style="fill:#000000;fill-opacity:0.5;stroke-width:0.0809974"
                 d="m 701.60806,2393.2907 c 0,0 -0.79128,0.012 -1.22329,0.1543 -1.12144,0.3694 -1.97448,1.3088 -2.26758,2.5 -0.17655,0.72 -0.16979,20.3968 0.008,21.1234 0.32899,1.3457 1.47878,2.4428 2.74219,2.6171 0.007,9e-4 0.16792,0 0.17969,0 0.30638,0 0.32769,-0.013 0.37109,-0.2676 1.39035,-8.1721 2.75706,-16.0661 2.85156,-16.4785 0.17099,-0.746 0.46056,-1.2733 0.97461,-1.7715 0.52124,-0.5051 1.04157,-0.7728 1.73438,-0.8906 0.33837,-0.058 4.30593,-0.088 11.71093,-0.088 h 11.19922 c 0.22308,-2.0064 -0.85269,-3.0377 -2.9356,-3.3167 -0.31321,-0.042 -3.55637,-0.081 -7.22265,-0.082 h -10.35679 l -1.65234,-1.75 -1.65039,-1.75 z"
                 transform="matrix(0.38007675,0,0,0.35905579,-95.983104,-585.63043)"
                 id="path2363"
                 sodipodi:nodetypes="cscssscsssscsccccc" />
              <path
                 style="fill:#000000;fill-opacity:0.241043;stroke-width:0.0809974"
                 d="m 729.88867,2399.8164 v 0.375 h -11.19922 c -7.405,4e-4 -11.37256,0.03 -11.71093,0.088 -0.69281,0.1178 -1.21314,0.3855 -1.73438,0.8906 -0.51405,0.4982 -0.80362,1.0255 -0.97461,1.7715 -0.0945,0.4124 -1.46121,8.3064 -2.85156,16.4785 -0.0434,0.2546 -0.0647,0.2701 -0.37109,0.2676 1.13379,0.085 25.9983,0.097 26.95117,0.01 0.98611,-0.09 1.50733,-0.3103 2.11523,-0.8926 0.55386,-0.5306 0.84334,-1.0069 0.99805,-1.6367 0.2139,-0.8701 2.23917,-13.0962 2.23828,-13.5118 -10e-4,-0.5449 -0.16633,-1.2051 -0.41602,-1.6562 -0.46409,-0.8383 -1.50218,-1.5937 -2.32617,-1.6934 -0.59023,-0.071 -0.70017,-0.03 -0.71875,-0.4902 z"
                 transform="matrix(0.38007675,0,0,0.35905579,-95.983104,-585.63043)"
                 id="path2365" />
            </g>
            <path
               style="fill:#000000;stroke-width:0.0299218"
               id="path2369"
               d="" />
          </g>
        </g>
      </g>
    </g>
  </g>
</svg>
